<svg height="24" viewBox="0 0 16 16" width="24" xmlns="http://www.w3.org/2000/svg"><path d="m8.17637 3.92203v1.63364c.00009.08983.02618.17758.07492.25205.04874.07446.11794.13226.19873.16601s.16951.0419.25482.02343c.08532-.01847.16335-.06273.22412-.12712l2.47134-2.5453c.042-.04218.0755-.0926.0983-.14831.0228-.0557.0345-.11554.0345-.176s-.0117-.12031-.0345-.17601-.0563-.10613-.0983-.14831l-2.47134-2.545286c-.06234-.0631643-.14144-.1058782-.22733-.12275349-.08588-.01687529-.17469-.00715627-.25521.02793649-.08053.0350928-.14915.093981-.19722.169231-.04806.07525-.07341.163489-.07283.253571v1.633641c-.93057-.00028-1.85206.18836-2.71184.55515s-1.64099.90454-2.299 1.58251c-.658.67797-1.17991 1.48289-1.53589 2.36876-.35599.88586-.53908 1.83532-.53881 2.79412-.0011.92281.17159 1.83701.5085 2.69201.05381.1411.14081.2663.2532.3641.11239.0979.24663.1655.39065.1967s.29331.025.43443-.0181c.14112-.043.26964-.1215.37402-.2284.12099-.1199.20486-.274.24105-.4429.0362-.169.0231-.3452-.03765-.5064-.26035-.651-.39274-1.3487-.38951-2.05282.00081-1.4513.5605-2.84296 1.55622-3.86948.99571-1.02652 2.34607-1.604 3.75463-1.60567z" fill="#43b675"/><path d="m14.9102 8.69805c.0002.95867-.1828 1.90795-.5388 2.79375-.3559.8857-.8777 1.6905-1.5356 2.3684s-1.4391 1.2155-2.2987 1.5823c-.85966.3667-1.78102.5553-2.71145.555v.0053c-.89148-.0007-1.77445-.1786-2.60051-.5239-.15501-.0633-.28959-.1703-.38834-.3088-.09874-.1384-.15766-.3027-.17-.474-.01004-.1303.0076-.2612.05168-.3837.04409-.1225.11357-.2337.20359-.3257.0902-.0936.19897-.1661.31886-.2124.11988-.0463.24806-.0653.37577-.0559.07777.0066.15399.0261.22577.0577.80641.3376 1.68102.4657 2.5468.3731.86578-.0927 1.69613-.4032 2.41803-.9044.7219-.5011 1.3131-1.1774 1.7216-1.9694.4084-.792.6217-1.67526.6208-2.57211h-.0122c-.0021-.70388-.1343-1.40089-.3895-2.05383-.0272-.06429-.0447-.13249-.0519-.20224-.0143-.13598.0012-.27354.0453-.40255.0441-.129.1157-.24618.2096-.3429.0939-.09671.2076-.17051.3328-.21596s.2587-.06138.3907-.04664c.1606.0179.3134.08064.4419.18147.1285.10084.2279.23591.2873.39066.3353.85359.5073 1.76591.5065 2.68675z" fill="#f8b037"/><path d="m6.58068 10.7887c-.32545.0786-.74954-.0304-1.27635-.3291l-1.13906-.6465c-.05535-.0247-.10397-.06304-.14156-.11165-.0376-.0486-.06302-.10598-.07405-.16709-.0092-.14127.0265-.28178.1017-.40029l1.78588-3.34691c.05835-.12826.15491-.23398.27561-.30179.05615-.02196.11653-.02999.17625-.02344.05972.00656.11711.02751.16751.06117l1.14006.64654c.52614.29899.84345.61091.95193.93575.10984.32484.06713.67169-.12814 1.0374-.2451.45687-.54512.71884-.89701.78381.13832.33532.08441.73351-.16272 1.1998-.19324.3605-.45359.5837-.78005.6623zm.73632-3.30922c-.07527-.09669-.17091-.17445-.27968-.22738l-.48817-.27664c-.01074-.00771-.02352-.01184-.03661-.01184s-.02587.00413-.03661.01184c-.02231.01387-.04086.03334-.05391.05658l-.17797.3458c-.01131.02228-.01691.04716-.01627.0723.00049.01279.00447.02518.01149.03574.00701.01057.01678.01888.02817.02399l.48613.27664c.10094.06814.21649.10987.33663.12156.04411-.0013.08688-.01589.12303-.04197.03615-.02607.0641-.06248.08038-.10474.02979-.03969.04784-.08739.05199-.13739.00415-.04999-.00578-.10016-.0286-.14449zm-.85837 1.60849c-.07596-.09666-.17184-.17469-.28069-.22844l-.48613-.27978c-.01056-.00667-.02271-.0102-.03509-.0102-.01239 0-.02453.00353-.03509.0102-.02191.01483-.04033.03452-.0539.05763l-.18306.34161c-.01082.02437-.01671.05075-.01729.07754.00052.01265.0044.02491.01121.03544s.01631.01893.02744.02429l.48714.27559c.10077.06709.21468.11039.33359.1268.08645 0 .15763-.05449.21865-.1708.02577-.03763.04068-.08199.04302-.12798.00234-.04598-.00799-.09171-.0298-.1319z" fill="#f8b037"/><path d="m9.93957 12.6665c-.32544.0786-.74954-.0303-1.27636-.329l-1.14007-.6465c-.05521-.0248-.10366-.0632-.14108-.1118-.03743-.0486-.06267-.1059-.07351-.167-.0092-.1412.0265-.2817.1017-.4002l1.78283-3.35116c.05832-.12793.15444-.23357.27459-.30178.05637-.02173.11687-.02963.17671-.02309.05984.00655.11739.02737.16806.06081l1.13906.64654c.5268.29864.8431.60986.9529.93575.1099.32589.0672.67169-.1291 1.03743-.2441.4568-.5451.7188-.896.7838.1373.3353.0834.7335-.1627 1.1998-.1902.3605-.4506.5837-.77703.6664zm.73633-3.30915c-.0755-.0964-.1711-.17411-.2797-.22738l-.49121-.28083c-.01059-.00762-.02319-.01171-.0361-.01171-.01292 0-.02552.00409-.03611.01171-.02258.01398-.04117.03386-.0539.05763l-.18306.34161c-.01052.02253-.01575.0473-.01526.0723.0005.01279.00448.02518.0115.03574.00701.01056.01678.01888.02817.02399l.48617.27664c.1009.06814.2164.10986.3366.12155.0441-.0013.0869-.01588.123-.04196.0362-.02607.0641-.06249.0804-.10474.0299-.03887.0486-.08566.0538-.13498s-.0032-.09916-.0243-.14376zm-.85837 1.60845c-.07596-.0966-.17185-.1746-.2807-.2284l-.48614-.2756c-.01055-.0067-.02269-.0102-.03508-.0102-.01238 0-.02453.0035-.03509.0102-.02214.0146-.04061.0343-.0539.0576l-.18306.3417c-.01082.0243-.01671.0507-.01729.0775.00028.0127.00407.0251.01092.0356.00684.0106.01645.019.02772.0241l.48614.2756c.10106.0673.21534.1106.3346.1268.04837-.0043.09458-.0226.13327-.0529.03869-.0302.06829-.0711.08539-.1179.02717-.0386.04288-.0845.04523-.1321s-.00877-.0949-.03201-.1362z" fill="#43b675"/></svg>