<svg fill="none" height="50" viewBox="0 0 50 50" width="50" xmlns="http://www.w3.org/2000/svg"><path d="m33.1444 21.4665 5.187 5.1867c.8417.8305 1.5108 1.8192 1.9688 2.9093s.6958 2.26.6997 3.4423c.004 1.1824-.226 2.3539-.6766 3.447-.4507 1.0931-1.1132 2.0863-1.9493 2.9224-.8361.836-1.8293 1.4985-2.9225 1.9491-1.0932.4507-2.2647.6806-3.4471.6767-1.1824-.004-2.3524-.2418-3.4425-.6998-1.0902-.4579-2.0789-1.127-2.9094-1.9686l-1.7279-1.7279c-.2337-.2254-.4201-.4951-.5484-.7934-.1282-.2982-.1958-.619-.1988-.9436-.003-.3247.0587-.6467.1815-.9472.1228-.3006.3043-.5736.5337-.8033.2295-.2297.5024-.4114.8029-.5345.3004-.123.6224-.1851.947-.1824.3247.0027.6456.07.9439.198.2984.128.5683.3141.794.5475l1.7312 1.7295c.7655.7586 1.8003 1.183 2.878 1.1805 1.0778-.0025 2.1106-.4318 2.8726-1.1939.762-.7622 1.191-1.7951 1.1932-2.8728.0022-1.0776-.4226-2.1123-1.1814-2.8776l-5.187-5.1867c-.5606-.5609-1.2728-.946-2.049-1.1081-.7763-.1621-1.583-.0943-2.3213.1953-.263.1043-.5097.2108-.7401.3195l-.7564.3537c-1.0106.4564-1.7882.652-2.7776-.3358-1.4215-1.4214-1.0531-2.7336.6797-3.9284 1.7261-1.1877 3.8138-1.7333 5.9003-1.5421 2.0866.1911 4.0403 1.107 5.5218 2.5886zm-9.7969-9.7964 1.7279 1.7278c.4457.4609.6924 1.0784.6871 1.7195-.0052.6411-.2621 1.2545-.7152 1.708-.4532.4536-1.0663.711-1.7074.7169-.6412.0058-1.2589-.2403-1.7203-.6855l-1.7295-1.7278c-.3759-.3893-.8254-.6999-1.3226-.9136-.4971-.2137-1.0318-.3263-1.573-.3311-.5411-.0049-1.0777.0981-1.5786.3028-.5009.2048-.956.5072-1.3387.8897-.3828.3825-.6855.8374-.8906 1.3382-.205.5007-.3083 1.0373-.3037 1.5784.0045.5411.1168 1.0758.3302 1.5731.2135.4972.5238.947.9129 1.323l5.187 5.1867c.5606.5609 1.2728.946 2.049 1.1081.7763.1621 1.583.0943 2.3213-.1953.263-.1043.5097-.2108.7401-.3195l.7564-.3537c1.0106-.4564 1.7898-.652 2.7777.3358 1.4214 1.4214 1.053 2.7336-.6798 3.9284-1.7261 1.1877-3.8138 1.7333-5.9003 1.5422-2.0866-.1912-4.0403-1.1071-5.5218-2.5887l-5.187-5.1867c-.84171-.8305-1.51081-1.8192-1.96879-2.9093s-.6958-2.26-.69976-3.4423c-.00396-1.1824.22601-2.3539.67668-3.447.45066-1.0931 1.11312-2.0863 1.94927-2.9224.8361-.836 1.8293-1.4985 2.9225-1.94911 1.0932-.45064 2.2647-.6806 3.4471-.67664s2.3524.24177 3.4425.69972c1.0902.45793 2.0789 1.12863 2.9094 1.97033z" fill="#22201f"/></svg>