<svg width="33" height="29" viewBox="0 0 33 29" fill="none" xmlns="http://www.w3.org/2000/svg">
<path d="M10.5298 21.3159C9.22796 21.6303 7.5316 21.1943 5.42436 19.9995L0.868118 17.4135C0.646718 17.3147 0.452237 17.1614 0.301877 16.9669C0.151478 16.7725 0.0497987 16.543 0.00567867 16.2986C-0.0311213 15.7335 0.111679 15.1715 0.412479 14.6974L7.556 1.30978C7.7894 0.796738 8.17564 0.373859 8.65844 0.102619C8.88304 0.0147786 9.12456 -0.0173428 9.36344 0.00885718C9.60232 0.0350972 9.83188 0.118898 10.0335 0.253538L14.5937 2.8397C16.6983 4.03566 17.9675 5.28334 18.4014 6.5827C18.8408 7.88206 18.67 9.26946 17.8889 10.7323C16.9085 12.5598 15.7084 13.6077 14.3008 13.8675C14.8541 15.2088 14.6385 16.8016 13.65 18.6667C12.877 20.1087 11.8356 21.0015 10.5298 21.3159ZM13.475 8.07906C13.174 7.6923 12.7914 7.38126 12.3563 7.16954L10.4036 6.06298C10.3607 6.03214 10.3096 6.01562 10.2572 6.01562C10.2048 6.01562 10.1537 6.03214 10.1108 6.06298C10.0215 6.11846 9.94732 6.19634 9.89512 6.2893L9.18324 7.6725C9.138 7.76162 9.1156 7.86114 9.11816 7.9617C9.12012 8.01286 9.13604 8.06242 9.16412 8.10466C9.19216 8.14694 9.23124 8.18018 9.2768 8.20062L11.2213 9.30718C11.6251 9.57974 12.0873 9.74666 12.5678 9.79342C12.7443 9.78822 12.9154 9.72986 13.06 9.62554C13.2046 9.52126 13.3164 9.37562 13.3815 9.20658C13.5006 9.04782 13.5728 8.85702 13.5894 8.65702C13.606 8.45706 13.5663 8.25638 13.475 8.07906ZM10.0416 14.513C9.73772 14.1264 9.3542 13.8143 8.9188 13.5993L6.97428 12.4801C6.93204 12.4535 6.88344 12.4393 6.83392 12.4393C6.78436 12.4393 6.7358 12.4535 6.69356 12.4801C6.60592 12.5395 6.53224 12.6182 6.47796 12.7107L5.74572 14.0771C5.70244 14.1746 5.67888 14.2801 5.67656 14.3873C5.67864 14.4379 5.69416 14.4869 5.7214 14.529C5.74864 14.5711 5.78664 14.6047 5.83116 14.6262L7.77972 15.7285C8.1828 15.9969 8.63844 16.1701 9.11408 16.2357C9.45988 16.2357 9.7446 16.0178 9.98868 15.5525C10.0918 15.402 10.1514 15.2246 10.1608 15.0406C10.1701 14.8567 10.1288 14.6738 10.0416 14.513Z" fill="#F8B037"/>
<path d="M23.9653 28.8271C22.6635 29.1415 20.9671 28.7059 18.8599 27.5111L14.2996 24.9251C14.0787 24.8259 13.8849 24.6723 13.7353 24.4779C13.5855 24.2835 13.4846 24.0543 13.4412 23.8099C13.4044 23.2451 13.5472 22.6831 13.848 22.2091L20.9793 8.80449C21.2126 8.29277 21.5971 7.87021 22.0777 7.59737C22.3032 7.51045 22.5452 7.47885 22.7845 7.50501C23.0239 7.53121 23.2541 7.61449 23.4568 7.74825L28.013 10.3344C30.1202 11.529 31.3854 12.7738 31.8246 14.0774C32.2642 15.381 32.0934 16.7642 31.3082 18.2271C30.3318 20.0543 29.1278 21.1023 27.7242 21.3623C28.2734 22.7035 28.0578 24.2963 27.0734 26.1615C26.3126 27.6035 25.271 28.4963 23.9653 28.8271ZM26.9106 15.5905C26.6086 15.2049 26.2262 14.8941 25.7918 14.681L23.827 13.5577C23.7846 13.5272 23.7342 13.5108 23.6826 13.5108C23.6309 13.5108 23.5805 13.5272 23.5381 13.5577C23.4478 13.6136 23.3735 13.6931 23.3225 13.7882L22.5903 15.1546C22.5482 15.2448 22.5273 15.3438 22.5293 15.4438C22.5313 15.495 22.5472 15.5446 22.5753 15.5868C22.6033 15.629 22.6424 15.6623 22.6879 15.6828L24.6326 16.7893C25.0362 17.0619 25.4982 17.2288 25.979 17.2755C26.1554 17.2703 26.3266 17.212 26.471 17.1077C26.6158 17.0034 26.7274 16.8577 26.7926 16.6887C26.9122 16.5332 26.987 16.3461 27.0078 16.1488C27.0286 15.9515 26.995 15.7522 26.9106 15.5738V15.5905ZM23.4771 22.0243C23.1733 21.6379 22.7897 21.3259 22.3543 21.1107L20.4098 20.0083C20.3676 19.9815 20.319 19.9675 20.2695 19.9675C20.2199 19.9675 20.1713 19.9815 20.1291 20.0083C20.0405 20.0667 19.9667 20.1455 19.9135 20.2387L19.1813 21.6055C19.138 21.7027 19.1144 21.8083 19.1121 21.9155C19.1132 21.9663 19.1284 22.0159 19.1558 22.0579C19.1831 22.1003 19.2216 22.1339 19.2667 22.1543L21.2112 23.2567C21.6155 23.5259 22.0726 23.6991 22.5496 23.7639C22.7431 23.7467 22.9279 23.6735 23.0827 23.5523C23.2375 23.4315 23.3559 23.2679 23.4243 23.0807C23.5329 22.9263 23.5958 22.7427 23.6052 22.5523C23.6146 22.3619 23.5701 22.1727 23.4771 22.0075V22.0243Z" fill="#43B675"/>
</svg>
